<?xml version="1.0" encoding="UTF-8"?>
<svg width="700pt" height="700pt" version="1.1" viewBox="0 0 700 700" xmlns="http://www.w3.org/2000/svg" xmlns:xlink="http://www.w3.org/1999/xlink">
 <g>
  <path d="m545.15 246.06h-8.4844c-4.6875 0-8.4844 3.7969-8.4844 8.4844 0 4.6836 3.7969 8.4844 8.4844 8.4844h8.4844c4.6836 0 8.4844-3.8008 8.4844-8.4844 0-4.6875-3.8008-8.4844-8.4844-8.4844z"/>
  <path d="m545.15 296.97h-8.4844c-4.6875 0-8.4844 3.8008-8.4844 8.4844 0 4.6875 3.7969 8.4844 8.4844 8.4844h8.4844c4.6836 0 8.4844-3.7969 8.4844-8.4844 0-4.6836-3.8008-8.4844-8.4844-8.4844z"/>
  <path d="m511.21 144.24h101.82c2.25 0 4.4062-0.89453 6-2.4844 1.5898-1.5898 2.4844-3.75 2.4844-6v-101.82c0-2.25-0.89453-4.4062-2.4844-5.9961-1.5938-1.5938-3.75-2.4883-6-2.4883h-101.82c-4.6836 0-8.4844 3.8008-8.4844 8.4844v42.426h-50.91c-4.6836 0-8.4844 3.8008-8.4844 8.4844v186.67h-59.395v-169.7c0-47.598-67.113-84.848-152.73-84.848-85.609 0-152.73 37.25-152.73 84.848v356.37c0 47.602 67.113 84.848 152.73 84.848 85.613 0 152.73-37.25 152.73-84.848v-169.7h59.395v186.67c0 2.25 0.89453 4.4062 2.4883 6 1.5898 1.5898 3.7461 2.4844 5.9961 2.4844h50.91v42.426c0 2.25 0.89453 4.4062 2.4844 5.9961 1.5938 1.5938 3.75 2.4883 6 2.4883h101.82c2.25 0 4.4062-0.89453 6-2.4883 1.5898-1.5898 2.4844-3.7461 2.4844-5.9961v-101.82c0-2.25-0.89453-4.4102-2.4844-6-1.5938-1.5898-3.75-2.4844-6-2.4844h-101.82c-4.6836 0-8.4844 3.7969-8.4844 8.4844v42.426h-42.422v-178.18h42.426v42.426h-0.003907c0 2.25 0.89453 4.4062 2.4844 6 1.5938 1.5898 3.75 2.4844 6 2.4844h101.82c2.25 0 4.4062-0.89453 6-2.4844 1.5898-1.5938 2.4844-3.75 2.4844-6v-101.82c0-2.25-0.89453-4.4062-2.4844-6-1.5938-1.5898-3.75-2.4844-6-2.4844h-101.82c-4.6836 0-8.4844 3.8008-8.4844 8.4844v42.426h-42.422v-178.18h42.426v42.426h-0.003907c0 2.25 0.89453 4.4102 2.4844 6 1.5938 1.5898 3.75 2.4844 6 2.4844zm-280-110.3c73.562 0 135.76 31.055 135.76 67.879 0 36.824-62.195 67.879-135.76 67.879s-135.76-31.055-135.76-67.879c0-36.824 62.195-67.879 135.76-67.879zm-135.76 107.25c25.457 27.238 75.855 45.48 135.76 45.48 59.902 0 110.3-18.242 135.76-45.48v79.418c0 36.824-62.195 67.879-135.76 67.879s-135.76-31.055-135.76-67.879zm271.52 317c0 36.824-62.195 67.879-135.76 67.879s-135.76-31.055-135.76-67.879v-79.422c25.457 27.238 75.855 45.48 135.76 45.48 59.902 0 110.3-18.242 135.76-45.48zm-135.76-50.91c-73.562 0-135.76-31.055-135.76-67.879v-79.418c25.457 27.234 75.855 45.477 135.76 45.477 59.902 0 110.3-18.242 135.76-45.48v79.422c0 36.824-62.191 67.879-135.76 67.879zm288.48 110.3v-33.938h84.852v33.938zm0-84.848h84.852v33.938l-84.852 0.003907zm0-110.3v-33.938h84.852v33.938zm0-84.848h84.852v33.938l-84.852 0.003906zm0-110.3v-33.938h84.852v33.938zm0-84.844h84.852v33.938h-84.852z"/>
  <path d="m545.15 50.91h-8.4844c-4.6875 0-8.4844 3.7969-8.4844 8.4844 0 4.6836 3.7969 8.4844 8.4844 8.4844h8.4844c4.6836 0 8.4844-3.8008 8.4844-8.4844 0-4.6875-3.8008-8.4844-8.4844-8.4844z"/>
  <path d="m545.15 101.82h-8.4844c-4.6875 0-8.4844 3.8008-8.4844 8.4883 0 4.6836 3.7969 8.4844 8.4844 8.4844h8.4844c4.6836 0 8.4844-3.8008 8.4844-8.4844 0-4.6875-3.8008-8.4883-8.4844-8.4883z"/>
  <path d="m545.15 441.21h-8.4844c-4.6875 0-8.4844 3.8008-8.4844 8.4844 0 4.6875 3.7969 8.4883 8.4844 8.4883h8.4844c4.6836 0 8.4844-3.8008 8.4844-8.4883 0-4.6836-3.8008-8.4844-8.4844-8.4844z"/>
  <path d="m545.15 492.12h-8.4844c-4.6875 0-8.4844 3.8008-8.4844 8.4844 0 4.6875 3.7969 8.4844 8.4844 8.4844h8.4844c4.6836 0 8.4844-3.7969 8.4844-8.4844 0-4.6836-3.8008-8.4844-8.4844-8.4844z"/>
 </g>
</svg>
