<?xml version="1.0" encoding="UTF-8"?>
<svg width="700pt" height="700pt" version="1.1" viewBox="0 0 700 700" xmlns="http://www.w3.org/2000/svg" xmlns:xlink="http://www.w3.org/1999/xlink">
    <g>
        <path d="m464.8 106.96c0-42-82.32-64.961-159.6-64.961-77.277 0-159.04 22.961-159.04 64.961v304.64c0 42 82.32 64.957 159.04 64.957 15.719-0.058594 31.426-0.99609 47.039-2.7969 15.09 15.066 32.969 27.051 52.641 35.277l19.602 8.9609 22.398-9.5195c68.879-28.559 106.96-81.199 106.96-147.28v-80.641l-89.039-47.598zm-159.6-42.562c83.441 0 137.2 25.199 137.2 42.559 0 17.363-53.758 42.004-137.2 42.004-83.441 0-136.64-24.641-136.64-42 0-17.359 53.203-42.562 136.64-42.562zm-136.64 178.08c29.68 20.16 84.559 30.801 136.64 30.801h8.9609l-14 7.8398v71.117c-80.641-1.1211-131.6-25.762-131.6-42.559zm136.64 211.68c-83.441 0-136.64-25.199-136.64-42.559v-67.762c29.121 19.602 82.32 30.238 133.28 30.801 4.4141 28.352 15.551 55.234 32.48 78.398zm226.24-92.961c0 40.32-16.238 94.641-92.961 126.56l-13.441 5.6016-11.199-4.4805c-27.117-11.703-50.211-31.094-66.434-55.773-16.219-24.68-24.859-53.57-24.848-83.105v-56l103.04-56.559 105.84 56.559zm-94.082-143.36-11.762-6.1602-63.277 34.719c-18.895 2.9727-37.992 4.4727-57.121 4.4805-83.441 0-136.64-25.199-136.64-42.559v-67.199c29.68 20.16 84.559 30.238 136.64 30.238 52.078 0 107.52-10.078 137.2-30.238v67.199c-0.39844 3.6992-2.2031 7.1055-5.0391 9.5195z"/>
        <path d="m390.32 355.04c-1.9492-2.5977-4.9297-4.2227-8.168-4.4492-3.2383-0.23047-6.418 0.95312-8.7109 3.25-2.2969 2.2969-3.4844 5.4766-3.2539 8.7148 0.23047 3.2383 1.8555 6.2188 4.4531 8.1641l39.762 38.641 69.438-67.758c2.1953-2.0156 3.4453-4.8594 3.4453-7.8398 0-2.9844-1.25-5.8281-3.4453-7.8398-4.1992-4.4297-11.172-4.6797-15.68-0.5625l-53.762 52.641z"/>
    </g>
</svg>
