<?xml version="1.0" encoding="UTF-8"?>
<svg width="700pt" height="700pt" version="1.1" viewBox="0 0 700 700" xmlns="http://www.w3.org/2000/svg">
    <g>
        <path d="m437.5 177.07h-0.38672c-11.129-41.582-49.629-72.066-94.41-72.066-45.676 0-84.07 30.504-94.746 73.047-51.031 7.0312-90.457 50.539-90.457 102.98 0 57.312 47.094 103.97 105 103.97h15.383c9.6758 0 17.5-7.8398 17.5-17.5s-7.8242-17.5-17.5-17.5h-15.383c-38.605 0-70-30.941-70-68.969 0-38.012 31.379-68.949 70.332-68.949h0.035157c9.0469 0 16.609-6.8945 17.43-15.906 2.9219-32.027 29.75-56.176 62.406-56.176 32.637 0 60.094 25.129 62.457 57.191 0.50781 10.012 10.551 17.852 20.371 15.961 4.3594-0.73438 8.2773-1.0859 11.969-1.0859 38.605 0 70 30.941 70 68.969 0 38.023-31.395 68.965-70 68.965h-15.383c-9.6758 0-17.5 7.8398-17.5 17.5s7.8242 17.5 17.5 17.5h15.383c57.906 0 105-46.656 105-103.97s-47.094-103.96-105-103.96z"/>
        <path d="m399.49 304.75-37.102-37.102c-6.4922-6.7734-18.27-6.7539-24.781 0l-37.102 37.102c-6.8438 6.8438-6.8438 17.902 0 24.746s17.902 6.8438 24.746 0l7.25-7.2461v115.25c0 9.6602 7.8242 17.5 17.5 17.5s17.5-7.8398 17.5-17.5v-115.25l7.2461 7.2461c3.4141 3.4141 7.8906 5.1289 12.371 5.1289 4.4805 0 8.9609-1.7148 12.371-5.1289 6.8438-6.8281 6.8438-17.906 0-24.746z"/>
    </g>
</svg>
